<svg xmlns="http://www.w3.org/2000/svg" xmlns:xlink="http://www.w3.org/1999/xlink" width="200" height="200" viewBox="0 0 200 200" fill="none"><rect x="0" y="0" width="0" height="0" fill="rgba(249, 249, 249, 1)" /><defs><rect id="path_0" x="0" y="0" width="200" height="200" /></defs><g opacity="1" transform="translate(0 0)  rotate(0 100 100)"><rect fill="#A6A6A6" opacity="0" transform="translate(0 0)  rotate(0 100 100)" x="0" y="0" width="200" height="200" rx="0" /><mask id="bg-mask-0" fill="white"><use xlink:href="#path_0"></use></mask><g mask="url(#bg-mask-0)" ><path id="矩形 1" fill-rule="evenodd" style="fill:#FFFFFF" transform="translate(15 2)  rotate(0 85 89.01388888888887)" opacity="1" d="M85.94,178.03L128,178.03C151.2,178.03 170,159.23 170,136.03L170,26.15L170,26.15C170,21.27 167.21,16.81 162.83,14.67C158.44,12.52 153.22,13.06 149.36,16.06L144.5,19.83L85.94,19.83L25.03,19.83L21.47,17.01C17.49,13.85 12.05,13.25 7.48,15.46C2.9,17.67 0,22.31 0,27.39L0,27.39L0,136.03C0,159.23 18.8,178.03 42,178.03L85.94,178.03Z " /><path  id="矩形 1" style="stroke:#000000; stroke-width:6; stroke-opacity:1; stroke-dasharray:0 0" transform="translate(15 2)  rotate(0 85 89.01388888888887)" d="M85.94,178.03L128,178.03C151.2,178.03 170,159.23 170,136.03L170,26.15L170,26.15C170,21.27 167.21,16.81 162.83,14.67C158.44,12.52 153.22,13.06 149.36,16.06L144.5,19.83L85.94,19.83L25.03,19.83L21.47,17.01C17.49,13.85 12.05,13.25 7.48,15.46C2.9,17.67 0,22.31 0,27.39L0,27.39L0,136.03C0,159.23 18.8,178.03 42,178.03L85.94,178.03Z " /><path id="三角形 1" fill-rule="evenodd" style="fill:#FFEB3B" transform="translate(84.06699769194569 134.5)  rotate(0 15.933002308054316 8.461081643915927)" opacity="1" d="M31.2,3.42C28.32,-4.28 22.85,3.42 15.7,3.42C8.55,3.42 3.59,-4.11 0.7,3.42C-2.19,10.96 4.06,16.92 15.7,16.92C27.34,16.92 34.08,11.12 31.2,3.42Z " /><path  id="三角形 1" style="stroke:#000000; stroke-width:4; stroke-opacity:1; stroke-dasharray:0 0" transform="translate(84.06699769194569 134.5)  rotate(0 15.933002308054316 8.461081643915927)" d="M31.2,3.42C28.32,-4.28 22.85,3.42 15.7,3.42C8.55,3.42 3.59,-4.11 0.7,3.42C-2.19,10.96 4.06,16.92 15.7,16.92C27.34,16.92 34.08,11.12 31.2,3.42Z " /><path id="圆形 1" fill-rule="evenodd" style="fill:#FFEB3B" transform="translate(116 65.05)  rotate(0 27 25.296023411368054)" opacity="1" d="M26.45,50.58C41.66,50.58 54,41.45 54,30.19C54,24.4 51.81,12.03 47.06,5.05C42.58,-1.53 35.81,-3.31 26.45,9.8C7.16,36.8 0,28.85 0,40.11C0,51.37 11.23,50.58 26.45,50.58Z " /><path  id="圆形 1" style="stroke:#000000; stroke-width:6; stroke-opacity:1; stroke-dasharray:0 0" transform="translate(116 65.05)  rotate(0 27 25.296023411368054)" d="M26.45,50.58C41.66,50.58 54,41.45 54,30.19C54,24.4 51.81,12.03 47.06,5.05C42.58,-1.53 35.81,-3.31 26.45,9.8C7.16,36.8 0,28.85 0,40.11C0,51.37 11.23,50.58 26.45,50.58Z " /><path id="圆形 1" fill-rule="evenodd" style="fill:#FFEB3B" transform="translate(30 65.05)  rotate(0 27 25.296023411368054)" opacity="1" d="M27.55,9.8C18.19,-3.31 11.42,-1.53 6.94,5.05C2.19,12.03 0,24.4 0,30.19C0,41.45 12.34,50.58 27.55,50.58C42.77,50.58 54,51.37 54,40.11C54,28.85 46.84,36.8 27.55,9.8Z " /><path  id="圆形 1" style="stroke:#000000; stroke-width:6; stroke-opacity:1; stroke-dasharray:0 0" transform="translate(30 65.05)  rotate(0 27 25.296023411368054)" d="M27.55,9.8C18.19,-3.31 11.42,-1.53 6.94,5.05C2.19,12.03 0,24.4 0,30.19C0,41.45 12.34,50.58 27.55,50.58C42.77,50.58 54,51.37 54,40.11C54,28.85 46.84,36.8 27.55,9.8Z " /><path id="矩形 2" fill-rule="evenodd" style="fill:#000000" transform="translate(85 33)  rotate(0 15 3)" opacity="1" d="M0,3C0,3.8 0.32,4.56 0.88,5.12C1.44,5.68 2.2,6 3,6L27,6C27.8,6 28.56,5.68 29.12,5.12C29.68,4.56 30,3.8 30,3L30,3C30,2.2 29.68,1.44 29.12,0.88C28.56,0.32 27.8,0 27,0L3,0C2.2,0 1.44,0.32 0.88,0.88C0.32,1.44 0,2.2 0,3Z " /><path id="矩形 2" fill-rule="evenodd" style="fill:#000000" transform="translate(78.7429212778906 44)  rotate(0 21.257078722109423 3.628539361054709)" opacity="1" d="M1.26,6C4.09,8.83 21.26,6 21.26,6C21.26,6 38.43,8.83 41.26,6C43.16269578494348,4.0943829371659515 42.50054197725165,2.033004452234581 41.86562210303509,0.8907507294465027C41.51,0.31 40.86,-0.03 40.18,0L3.95,0C2.25,-0.23 0.62,0.79 0.08,2.42C-0.13,3.48 0.03,4.77 1.26,6Z " /><path id="矩形 3" fill-rule="evenodd" style="fill:#000000" transform="translate(97 29)  rotate(0 3 7)" opacity="1" d="M0,11C0,11.8 0.32,12.56 0.88,13.12C1.44,13.68 2.2,14 3,14L3,14C3.8,14 4.56,13.68 5.12,13.12C5.68,12.56 6,11.8 6,11L6,3C6,2.2 5.68,1.44 5.12,0.88C4.56,0.32 3.8,0 3,0L3,0C2.2,0 1.44,0.32 0.88,0.88C0.32,1.44 0,2.2 0,3Z " /></g></g></svg>